<svg width="360" height="740" viewBox="0 0 360 740" fill="none" xmlns="http://www.w3.org/2000/svg" role="img" aria-labelledby="title desc">
  <title id="title">Mockup de app de finanzas</title>
  <desc id="desc">Pantalla conceptual con balance, grafica y lista de gastos.</desc>
  <rect width="360" height="740" rx="38" fill="#FFFDF8"/>
  <rect x="0" y="0" width="360" height="740" rx="38" fill="#0F766E"/>
  <rect x="28" y="34" width="304" height="672" rx="28" fill="#FFFDF8"/>
  <circle cx="67" cy="83" r="18" fill="#F4B942"/>
  <rect x="98" y="71" width="116" height="12" rx="6" fill="#17191C"/>
  <rect x="98" y="92" width="72" height="8" rx="4" fill="#7C838C"/>
  <rect x="54" y="134" width="252" height="132" rx="22" fill="#17191C"/>
  <text x="76" y="177" fill="#FFFDF8" font-family="Arial, sans-serif" font-size="16" font-weight="700">Balance</text>
  <text x="76" y="222" fill="#FFFDF8" font-family="Arial, sans-serif" font-size="38" font-weight="800">2.840€</text>
  <path d="M76 306C104 276 126 314 153 285C183 253 209 294 237 264C252 248 268 246 286 250" stroke="#0F766E" stroke-width="12" stroke-linecap="round"/>
  <rect x="54" y="346" width="62" height="118" rx="16" fill="#D8EFEA"/>
  <rect x="126" y="314" width="62" height="150" rx="16" fill="#F6DDE2"/>
  <rect x="198" y="284" width="62" height="180" rx="16" fill="#F8E6B6"/>
  <rect x="54" y="506" width="252" height="46" rx="14" fill="#F1EADF"/>
  <circle cx="78" cy="529" r="10" fill="#E84A5F"/>
  <rect x="100" y="520" width="88" height="8" rx="4" fill="#17191C"/>
  <rect x="100" y="536" width="54" height="7" rx="3.5" fill="#8A8F98"/>
  <rect x="54" y="568" width="252" height="46" rx="14" fill="#F1EADF"/>
  <circle cx="78" cy="591" r="10" fill="#3B82F6"/>
  <rect x="100" y="582" width="104" height="8" rx="4" fill="#17191C"/>
  <rect x="100" y="598" width="68" height="7" rx="3.5" fill="#8A8F98"/>
  <rect x="112" y="656" width="136" height="14" rx="7" fill="#17191C"/>
</svg>
