<svg width="360" height="740" viewBox="0 0 360 740" fill="none" xmlns="http://www.w3.org/2000/svg" role="img" aria-labelledby="title desc">
  <title id="title">Mockup de app de habitos</title>
  <desc id="desc">Pantalla conceptual con calendario semanal y progreso de habitos.</desc>
  <rect width="360" height="740" rx="38" fill="#FFFDF8"/>
  <rect width="360" height="740" rx="38" fill="#E84A5F"/>
  <rect x="28" y="34" width="304" height="672" rx="28" fill="#FFFDF8"/>
  <rect x="54" y="70" width="132" height="14" rx="7" fill="#17191C"/>
  <rect x="54" y="96" width="202" height="9" rx="4.5" fill="#757B84"/>
  <g transform="translate(54 142)">
    <rect width="36" height="78" rx="18" fill="#17191C"/>
    <rect x="46" width="36" height="78" rx="18" fill="#F1EADF"/>
    <rect x="92" width="36" height="78" rx="18" fill="#F1EADF"/>
    <rect x="138" width="36" height="78" rx="18" fill="#0F766E"/>
    <rect x="184" width="36" height="78" rx="18" fill="#F1EADF"/>
    <rect x="230" width="36" height="78" rx="18" fill="#F4B942"/>
    <circle cx="18" cy="56" r="7" fill="#FFFDF8"/>
    <circle cx="156" cy="56" r="7" fill="#FFFDF8"/>
    <circle cx="248" cy="56" r="7" fill="#17191C"/>
  </g>
  <circle cx="180" cy="354" r="86" fill="#F6DDE2"/>
  <circle cx="180" cy="354" r="62" stroke="#E84A5F" stroke-width="18"/>
  <path d="M180 292A62 62 0 0 1 238 376" stroke="#17191C" stroke-width="18" stroke-linecap="round"/>
  <text x="144" y="366" fill="#17191C" font-family="Arial, sans-serif" font-size="32" font-weight="800">74%</text>
  <rect x="54" y="492" width="252" height="48" rx="14" fill="#F1EADF"/>
  <rect x="76" y="511" width="116" height="10" rx="5" fill="#17191C"/>
  <circle cx="280" cy="516" r="12" fill="#0F766E"/>
  <rect x="54" y="558" width="252" height="48" rx="14" fill="#F1EADF"/>
  <rect x="76" y="577" width="142" height="10" rx="5" fill="#17191C"/>
  <circle cx="280" cy="582" r="12" fill="#F4B942"/>
  <rect x="54" y="624" width="252" height="48" rx="14" fill="#F1EADF"/>
  <rect x="76" y="643" width="98" height="10" rx="5" fill="#17191C"/>
  <circle cx="280" cy="648" r="12" fill="#3B82F6"/>
</svg>
